<?xml version="1.0" encoding="utf-8"?>
<!-- Generator: Adobe Illustrator 25.2.0, SVG Export Plug-In . SVG Version: 6.00 Build 0)  -->
<svg version="1.1" id="Layer_1" xmlns="http://www.w3.org/2000/svg" xmlns:xlink="http://www.w3.org/1999/xlink" x="0px" y="0px"
	 viewBox="0 0 1097.6 362.4" style="enable-background:new 0 0 1097.6 362.4;" xml:space="preserve">
<style type="text/css">
	.st0{fill:#EC681C;}
</style>
<path class="st0" d="M0,361.9c0.1-2.9,0.1-5.8,0.2-8.7c0.3-4.8,0.8-9.6,1.7-14.3c1-6.3,2.5-12.5,4.4-18.5c13.8-44.2,49-78.4,93.5-91
	c32.9-9.4,64.4-0.6,92.8-24.6c9.8-8.2,17.5-18.6,22.7-30.2c3.1-6.8,5.2-14,6.4-21.4c0.3-1.8,0.3-3.6,0.6-5.4
	c0.4-3.4,0.6-6.8,0.4-10.2c-0.1-2.6-0.4-5.2-0.6-7.8c-0.3-3.4-0.8-6.8-1.7-10.1c-6.6-27.4-26.2-49.8-52.6-59.8
	c-5.5-2.1-11.3-3.6-17.1-4.5c-5.7-0.9-11.5-1.2-17.3-0.9c-4,0.2-8,0.7-11.9,1.5c-18.2,3.6-34.7,13-47,26.9
	c-7.1,8-12.6,17.3-16.3,27.4c-1.3,3.5-2.4,7-3.1,10.7c-0.6,2.9-1,5.9-1.5,8.8c-0.4,3-0.6,6-0.5,8.9c0,0.2,0,0.4,0,0.7H0.2
	c-0.1-0.4-0.1-0.8-0.2-1.2c0.1-2.8,0.1-5.7,0.3-8.5c0.6-9.9,2.4-19.8,5.2-29.3c6.7-22.7,19.2-43.4,36.2-59.9
	c4.4-4.3,9.1-8.2,14-11.8c9.9-7.3,20.8-13.3,32.3-17.7c7.5-2.9,15.3-5.1,23.2-6.6c5-0.9,10.1-1.6,15.2-2c5.5-0.5,11-0.4,16.5-0.3
	c2.2,0,4.3,0.2,6.5,0.5c3.8,0.4,7.6,0.9,11.4,1.5c5.5,0.9,10.9,2.2,16.2,3.8c33.9,10.3,62.5,33.4,79.8,64.3c3.5,6.4,6.6,13,9.1,19.8
	c2.7,7.4,4.8,15,6.2,22.8c1.4,7.5,2.1,15.1,2,22.8c-0.1,4.2,0,8.4-0.3,12.6c-0.3,4.2-0.9,8.1-1.5,12.1c-1.1,6.8-2.8,13.5-5,20.1
	c-1.6,4.8-3.4,9.4-5.5,14c-7.3,15.9-17.6,30.2-30.3,42.2c-4.6,4.4-9.4,8.4-14.6,12c-4,2.8-8.1,5.4-12.3,7.9
	c-5.6,3.2-11.5,6-17.5,8.4c-5.7,2.3-11.5,4.1-17.5,5.5c-12.3,2.8-25.9,3.4-38.9,4.4c-5.7,0.5-11.4,1.5-16.8,3.2
	c-16.8,5-31.7,15-42.5,28.7c-0.3,0.3-0.5,0.7-0.8,1.2c0.3,0.1,0.6,0.1,0.9,0.2c0.4,0,0.8,0,1.2,0h199.9c0.5,0,0.9,0.1,1.5,0.1v51.6
	c-30.5-0.1-60.9,0-91.3,0H91.4C61,361.8,30.6,361.7,0,361.9z M170.1,137.9c0,11.6-3.5,19.5-10.4,25.9c-6.5,6.1-15.2,9.1-24.1,8.4
	c-17.7-1.2-31.1-16.6-29.8-34.3c0-0.1,0-0.1,0-0.2c0.4-8.2,4.1-15.8,10.2-21.3c6.5-6.2,15.3-9.3,24.2-8.6
	C156.2,108.7,170.4,122.6,170.1,137.9z M544.5,362.4c-62.2,0-112.6-50.4-112.6-112.6s50.4-112.6,112.6-112.6s112.6,50.4,112.6,112.6
	c0,0,0,0,0,0C657,312,606.7,362.4,544.5,362.4z M544.5,182.2c-36.1,0-65.5,30.3-65.5,67.6s29.4,67.6,65.5,67.6s65.5-30.3,65.5-67.6
	S580.6,182.3,544.5,182.2L544.5,182.2z M339.4,0h64.5v361.4h-64.5V0z M1033.1,0.5h64.5v361.4h-64.5V0.5z M945.3,284.9 M891.4,338.8
	 M895.2,248.4c0,11.6-3.5,19.5-10.4,25.9c-6.5,6.1-15.2,9.1-24.1,8.4c-17.7-1.2-31.1-16.6-29.8-34.3c0,0,0-0.1,0-0.1
	c0.4-8.2,4.1-15.8,10.1-21.3c6.5-6.2,15.3-9.3,24.2-8.6C881.4,219.2,895.6,233.1,895.2,248.4z M977.4,250.3c0-0.1,0-0.3,0-0.4
	c-0.1-62.2-50.4-112.5-112.6-112.6c-0.9,0-1.7,0-2.6,0.1v45.1c0.9,0,1.7-0.1,2.6-0.1c36.1,0,65.5,30.3,65.5,67.6
	s-29.4,67.6-65.5,67.6c-0.9,0-1.7-0.1-2.6-0.1v45.1c0.9,0,1.7,0.1,2.6,0.1c26.1,0,51.4-9.1,71.5-25.7v25.1h64.5V250.3H977.4z
	 M797.7,317.4c-35.3-1-63.7-30.9-63.7-67.5s28.4-66.5,63.7-67.5v-45c-62.2,1-111.7,52.2-110.7,114.4c1,60.7,50,109.7,110.7,110.7
	V317.4z"/>
</svg>
