<svg xmlns="http://www.w3.org/2000/svg" width="512" height="512" viewBox="0 0 512 512"><defs><style>.a{fill:#ec681c;}.b{fill:#fff;}</style></defs><circle class="a" cx="256" cy="256" r="255"/><path class="b" d="M281.85,209.94c0,10.82-3.35,18.27-9.69,24a29.92,29.92,0,0,1-50.07-24v-.18a30.1,30.1,0,0,1,32.09-27.95C269,182.74,282.23,195.6,281.85,209.94Z"/><path class="b" d="M123.5,418.42c0-2.8,0-5.41.18-8a127.27,127.27,0,0,1,34.44-79.92A136.78,136.78,0,0,1,175.63,315a124.11,124.11,0,0,1,40.8-19.94c30.74-8.76,60-.56,86.44-22.92A78.62,78.62,0,0,0,324.12,244a81.94,81.94,0,0,0,5.95-19.92l.57-5a53.76,53.76,0,0,0,.36-9.49c0-2.43-.36-4.85-.55-7.27a42.54,42.54,0,0,0-1.68-9.5,79.29,79.29,0,0,0-49-55.71,80.58,80.58,0,0,0-32.23-4.83,70.26,70.26,0,0,0-11,1.49A81.21,81.21,0,0,0,225,136.92a79.4,79.4,0,0,0-32.23,21.8,73.66,73.66,0,0,0-6.53,8.39,83.32,83.32,0,0,0-8.7,17.12,59.54,59.54,0,0,0-3,9.88c-.56,2.8-.93,5.4-1.3,8.17a41.93,41.93,0,0,0-.37,8.38v.75h-49.2c0-.38-.18-.75-.18-1.12,0-2.61.18-5.22.18-8a120.52,120.52,0,0,1,4.81-27.17A124.26,124.26,0,0,1,143,143.06a128.38,128.38,0,0,1,62.22-51.24,114.49,114.49,0,0,1,21.61-6.13A124.84,124.84,0,0,1,241,83.83c5.21-.38,10.22-.38,15.46-.38a59.41,59.41,0,0,1,6,.38c3.54.37,7.08.93,10.61,1.48a111.83,111.83,0,0,1,15.1,3.55A137,137,0,0,1,310.51,98a129.54,129.54,0,0,1,14,8.57,127,127,0,0,1,38,42.28,138.34,138.34,0,0,1,8.57,18.39,120.11,120.11,0,0,1,5.74,21.24,117.29,117.29,0,0,1,1.86,21.24c-.19,3.91,0,7.83-.37,11.73s-.75,7.64-1.31,11.37a133.64,133.64,0,0,1-4.65,18.82,111.13,111.13,0,0,1-5.22,13A110.55,110.55,0,0,1,355.39,285a122.8,122.8,0,0,1-16.53,19.1,111.17,111.17,0,0,1-13.6,11.18c-3.73,2.61-7.63,5-11.55,7.27a110,110,0,0,1-16.4,7.82,103,103,0,0,1-16.2,5c-11.55,2.61-24,3.17-36.15,4.09a64.08,64.08,0,0,0-15.64,3,79.71,79.71,0,0,0-39.68,26.83,4.17,4.17,0,0,1-.75,1.11c.37,0,.55.2.93.2H377.25a3,3,0,0,1,1.29.18v47.66Z"/></svg>