<svg xmlns="http://www.w3.org/2000/svg" width="82.314" height="82.312" viewBox="0 0 82.314 82.312"><defs><style>.a{fill:#ef0808;}</style></defs><g transform="translate(0 -0.002)"><path class="a" d="M70.256,12.06A41.154,41.154,0,1,0,53,80.582a4.019,4.019,0,1,0-2.31-7.7A33.1,33.1,0,1,1,68.857,59.325a4.019,4.019,0,1,0,6.717,4.415A41.166,41.166,0,0,0,70.256,12.06Z" transform="translate(0 0)"/><path class="a" d="M231,113.019v25.562a4.019,4.019,0,0,0,8.038,0V113.019a4.019,4.019,0,0,0-8.038,0Z" transform="translate(-193.863 -91.474)"/><path class="a" d="M235.019,361.038a4.019,4.019,0,1,1,4.019-4.019,4.019,4.019,0,0,1-4.019,4.019Z" transform="translate(-193.863 -296.247)"/></g></svg>
