<svg xmlns="http://www.w3.org/2000/svg" width="224.76" height="224.76" viewBox="0 0 224.76 224.76"><defs><style>.a{fill:#efb80b;}.b{fill:#fff;}</style></defs><circle class="a" cx="112.38" cy="112.38" r="112.38"/><polygon class="b" points="83.64 100.5 112.44 71.7 141.24 100.5 157.98 83.76 112.44 38.21 66.89 83.76 83.64 100.5"/><rect class="b" x="887.55" y="528.23" width="23.65" height="23.65" transform="translate(-962.86 366.46) rotate(-45)"/><polygon class="b" points="83.64 124.15 112.44 152.96 141.24 124.15 157.98 140.9 157.98 140.9 112.44 186.44 66.89 140.9 66.78 140.9 83.64 124.15"/><rect class="b" x="1002.29" y="528.23" width="23.65" height="23.65" transform="translate(-929.26 447.59) rotate(-45)"/><polygon class="b" points="129.41 112.33 129.41 112.33 112.44 95.35 99.79 107.88 99.79 107.88 98.39 109.28 95.46 112.33 95.46 112.33 95.34 112.33 95.46 112.33 112.44 129.3 129.41 112.33 129.41 112.33"/></svg>