<svg xmlns="http://www.w3.org/2000/svg" width="79.787" height="79.787" viewBox="0 0 79.787 79.787"><defs><style>.a{fill:#029f2c;}</style></defs><path class="a" d="M79.787,40.394A39.736,39.736,0,0,1,73.027,62.54a3.117,3.117,0,1,1-5.182-3.464,33.576,33.576,0,0,0,4.648-27.1,3.117,3.117,0,1,1,6.037-1.554,40.038,40.038,0,0,1,1.257,9.972ZM57.305,69.207A33.661,33.661,0,1,1,59,12.681a3.117,3.117,0,0,0,3.543-5.129A39.9,39.9,0,0,0,11.684,68.6a39.908,39.908,0,0,0,48.851,5.935,3.117,3.117,0,1,0-3.23-5.331ZM40.194,49.431a1.777,1.777,0,0,1-1.312-.5L22.558,33.458a3.117,3.117,0,0,0-4.289,4.523l16.32,15.474a7.959,7.959,0,0,0,5.523,2.211c.111,0,.222,0,.332-.007A7.966,7.966,0,0,0,46.1,52.992c.037-.041.072-.083.107-.126L79.1,11.959a3.117,3.117,0,0,0-4.858-3.906L41.417,48.88a1.782,1.782,0,0,1-1.224.551Zm0,0" transform="translate(0 -0.501)"/></svg>
